# xmcd
# 
# Track frame offsets:
#     150
#     33775
#     58220
#     70305
#     83725
#     115747
#     131972
#     149150
#     166455
#     175225
#     197875
#     220445
#     252825
# 
# Disc length: 3646
# 
# Revision: 7
# Processed by: cddbd v1.5.2PL0 Copyright (c) Steve Scherf et al.
# Submitted via: fre:ac v1.0.17
# 
DISCID=cc0e3c0d
DTITLE=Front 242 - Official Version
DYEAR=1987
DGENRE=Techno-Industrial
TTITLE0=W.Y.H.I.W.Y.G.
TTITLE1=Rerun Time
TTITLE2=Television Station
TTITLE3=Agressiva Due
TTITLE4=Masterhit (Part I and II)
TTITLE5=Slaughter
TTITLE6=Quite Unusual
TTITLE7=Red Team
TTITLE8=Angst
TTITLE9=Quite Unusual (12" version)
TTITLE10=Agressiva (12" version)
TTITLE11=Masterhit (Masterblaster)
TTITLE12=Masterhit (Hypnomix)
EXTD=
EXTT0=
EXTT1=
EXTT2=
EXTT3=
EXTT4=
EXTT5=
EXTT6=
EXTT7=
EXTT8=
EXTT9=
EXTT10=
EXTT11=
EXTT12=
PLAYORDER=
